<svg width="50" height="50" viewBox="0 0 50 50" fill="none" xmlns="http://www.w3.org/2000/svg">
<path fill-rule="evenodd" clip-rule="evenodd" d="M25 0C17.9771 5.97083 13.575 6.25 6.25 6.25V30.2812C6.25 39.8708 12.9229 42.3729 25 50C37.0771 42.3729 43.75 39.8708 43.75 30.2812V6.25C36.425 6.25 32.0229 5.97083 25 0ZM25 5.3C30.2083 9.06042 34.4896 10.075 39.5833 10.3333V30.2812C39.5833 36.6187 36.0708 38.2542 25 45.0896C13.9396 38.2604 10.4167 36.6208 10.4167 30.2812V10.3333C15.5146 10.075 19.7917 9.06042 25 5.3Z" fill="#723AD1"/>
<path d="M21.1845 17.6385L24.1188 20.5728C24.6063 21.0603 25.4032 21.0603 25.8907 20.5728L28.8251 17.6385C29.6126 16.851 29.0595 15.4916 27.9345 15.4916H22.0657C20.9501 15.4916 20.3876 16.851 21.1845 17.6385ZM21.1845 29.8625L24.1188 26.9281C24.3542 26.694 24.6728 26.5626 25.0048 26.5626C25.3368 26.5626 25.6553 26.694 25.8907 26.9281L28.8251 29.8625C29.6126 30.65 29.0595 32.0094 27.9345 32.0094H22.0657C20.9501 32.0094 20.3876 30.65 21.1845 29.8625ZM15.7751 23.2156L17.922 19.8406C18.2595 19.3063 19.0095 19.2219 19.4595 19.6719L22.8345 23.0469C23.2188 23.4313 23.2188 24.0594 22.8345 24.4438L19.4595 27.8188C19.0095 28.2688 18.2688 28.1844 17.922 27.65L15.7751 24.275C15.5782 23.9563 15.5782 23.5438 15.7751 23.2156ZM34.2251 23.2156L32.0782 19.8406C31.7407 19.3063 30.9907 19.2219 30.5407 19.6719L27.1657 23.0469C26.7813 23.4313 26.7813 24.0594 27.1657 24.4438L30.5407 27.8188C30.9907 28.2688 31.7313 28.1844 32.0782 27.65L34.2251 24.275C34.422 23.9563 34.422 23.5438 34.2251 23.2156Z" fill="#723AD1"/>
</svg>
