<svg width="400" height="297" viewBox="0 0 400 297" fill="none" xmlns="http://www.w3.org/2000/svg">
<g clip-path="url(#clip0_26_169)">
<path d="M81.9355 289.242L88.111 289.242L91.0487 265.402L81.9343 265.402L81.9355 289.242Z" fill="#9E616A"/>
<path d="M80.3604 287.224L82.0985 287.224L88.8845 284.462L92.5216 287.224C94.577 287.224 96.5487 288.041 98.0021 289.496C99.4555 290.951 100.272 292.924 100.272 294.981V295.233L80.3607 295.234L80.3604 287.224Z" fill="#2F2E41"/>
<path d="M110.625 289.242L116.8 289.242L119.738 265.402L110.623 265.402L110.625 289.242Z" fill="#9E616A"/>
<path d="M109.049 287.224L110.787 287.224L117.573 284.462L121.211 287.224C123.266 287.224 125.238 288.041 126.691 289.496C128.144 290.951 128.961 292.924 128.961 294.981V295.233L109.05 295.234L109.049 287.224Z" fill="#2F2E41"/>
<path d="M115.561 158.776L67.0425 160.043L67.8863 183.691C67.8863 183.691 67.0425 190.025 68.7301 191.714C70.4177 193.403 71.2615 193.403 70.4177 196.359C69.5739 199.315 74.0321 204.143 73.4906 204.685C72.9491 205.227 71.6834 208.183 71.6834 208.183L75.9024 232.253C75.9024 232.253 78.8557 274.058 79.6995 274.903C80.5433 275.748 81.387 274.903 80.5432 277.014C79.6994 279.126 78.8557 278.281 79.6995 279.126C80.4469 279.932 81.151 280.778 81.8089 281.659H92.0092C92.0092 281.659 92.7783 277.437 92.7783 277.014C92.7783 276.592 93.6221 274.058 93.6221 273.636C93.6221 273.214 92.8763 272.467 92.8763 272.467C92.6185 271.609 92.4444 270.728 92.3564 269.836C92.3564 268.991 89.825 236.476 89.825 236.476L94.8878 194.248L107.123 235.631C107.123 235.631 107.123 271.947 107.967 272.792C108.81 273.636 108.81 273.214 108.388 274.903C107.967 276.592 106.279 276.17 107.545 277.437C108.81 278.703 109.232 276.592 108.81 278.703L108.388 280.815L121.045 280.996C121.045 280.996 122.733 277.437 121.889 276.17C121.045 274.903 121.096 275.249 122.125 273.176C123.155 271.103 123.577 270.68 123.155 270.258C122.733 269.836 122.733 267.59 122.733 267.59L120.623 227.186C120.623 227.186 120.202 184.535 120.202 183.269C120.17 182.617 120.29 181.966 120.552 181.369V179.649L118.936 173.556L115.561 158.776Z" fill="#2F2E41"/>
<path d="M170.468 66.6765C170.235 67.3251 169.863 67.9148 169.377 68.4038C168.892 68.8928 168.305 69.2694 167.659 69.5069C167.012 69.7445 166.321 69.8372 165.635 69.7787C164.949 69.7201 164.284 69.5117 163.687 69.168L142.626 86.8281L141.481 78.1959L162.081 62.4127C162.724 61.447 163.699 60.7511 164.82 60.4567C165.942 60.1624 167.133 60.2901 168.167 60.8157C169.2 61.3413 170.006 62.2282 170.43 63.3083C170.854 64.3885 170.868 65.5869 170.468 66.6765Z" fill="#9E616A"/>
<path d="M77.6022 73.965C84.8254 73.965 90.681 68.1041 90.681 60.8743C90.681 53.6446 84.8254 47.7837 77.6022 47.7837C70.379 47.7837 64.5234 53.6446 64.5234 60.8743C64.5234 68.1041 70.379 73.965 77.6022 73.965Z" fill="#9E616A"/>
<path d="M88.2051 47.8463C86.9875 44.9416 81.7693 43.2169 73.5122 43.4767C65.2551 43.7364 63.8091 53.5921 63.8091 53.5921C59.261 57.8349 66.6037 71.082 67.8776 69.2556C69.1515 67.4292 71.2903 69.1556 71.2903 69.1556L69.2521 57.6804C71.4046 58.5092 73.7195 59.0657 75.7441 58.1001L72.3896 56.3048C75.1698 56.651 77.9499 56.9973 80.7301 57.3436L77.2905 54.695C77.3738 54.6675 77.4572 54.6388 77.5407 54.6107C78.9201 55.206 80.3973 55.5417 81.8983 55.601C83.6519 55.5879 85.5155 54.7654 86.2504 53.1717C86.4457 52.7341 86.5516 52.2617 86.5616 51.7824C88.9795 52.5682 90.2491 55.4032 90.2491 55.4032C89.79 52.8293 89.1061 50.3006 88.2051 47.8463Z" fill="#2F2E41"/>
<path d="M88.0712 74.5505C85.1505 74.5505 83.2696 74.9539 78.7249 75.7198C70.3366 77.1347 75.3602 85.1123 75.3602 85.1123C75.3602 85.1123 75.7399 84.9193 74.7118 85.1123C73.6837 85.3052 70.1789 88.3397 70.1789 88.3397L63.911 93.9116C54.4654 101.331 56.58 112.908 56.58 112.908L70.3541 126.782L64.3199 154.618C64.3199 154.618 66.8843 158.752 65.5583 160.605C64.2323 162.459 77.2412 161.926 77.2412 161.926C86.2194 165.931 117.851 162.546 117.851 162.546C117.413 161.4 113.178 152.519 113.178 152.519C115.018 149.338 113.265 144.743 113.265 144.743C113.265 144.743 111.437 123.005 110.269 120C109.1 116.994 113.259 100.711 115.993 100.887C118.727 101.062 136.386 92.0465 136.386 92.0465C136.386 92.0465 135.942 91.339 141.771 88.9536C145.12 87.6367 148.19 85.6986 150.82 83.2413L153.215 78.4529C152.064 78.8972 148.18 71.5654 148.18 71.5654L146.486 72.2118L145.504 71.9279C145.504 71.9279 137.846 74.1088 136.28 75.6991C134.715 77.2894 134.189 76.845 132.776 77.2017C131.362 77.5583 131.187 78.5523 130.743 78.4412C130.299 78.3301 129.51 79.6748 128.891 79.4994C128.272 79.324 126.946 80.0315 126.064 80.2069C125.182 80.3823 118.914 83.0367 118.914 83.0367C115.035 81.0722 104.521 81.8673 104.521 81.8673C104.521 81.8673 101.08 79.8385 100.104 81.8673C99.842 82.4438 99.4206 82.9332 98.8897 83.2781C98.3589 83.623 97.7407 83.809 97.1078 83.8143L92.9137 82.0194C92.67 82.9099 88.0952 73.6274 88.0712 74.5505Z" fill="#BE53F7"/>
<path d="M68.0471 183.494C67.589 182.979 67.2493 182.37 67.0518 181.71C66.8544 181.049 66.804 180.354 66.9043 179.672C67.0045 178.99 67.253 178.338 67.6321 177.762C68.0112 177.187 68.5118 176.702 69.0986 176.341L63.1564 152.96L71.2805 156.076L75.7955 178.154C76.336 179.181 76.4813 180.371 76.2041 181.498C75.9268 182.625 75.2461 183.611 74.291 184.269C73.3359 184.927 72.1728 185.212 71.022 185.069C69.8712 184.926 68.8127 184.366 68.0471 183.494Z" fill="#9E616A"/>
<path d="M57.1116 108.461L56.3778 117.798C56.3778 117.798 55.4656 128.055 55.7045 129.952C55.9433 131.848 56.3881 143.431 56.3881 143.431L64.1213 158.743L72.8835 156.405L72.3591 149.222L72.8835 155.82L74.0518 149.973L71.131 140.034L72.8835 136.526L71.9997 124.75L57.1116 108.461Z" fill="#BE53F7"/>
<path d="M264.565 86.6412L267.458 87.2616C267.477 86.0505 267.627 84.8451 267.907 83.6667C268.171 85.1098 268.725 86.4841 269.536 87.7057L286.127 91.252L302.056 74.4269C302.08 66.0143 297.413 59.6213 289.044 59.6213C288.54 59.6213 288.017 59.6456 287.489 59.6943C282.967 58.9368 278.329 59.9649 274.549 62.5619C270.77 65.159 268.145 69.1224 267.227 73.6178C261.295 79.4634 263.447 82.9002 264.565 86.6412Z" fill="#2F2E41"/>
<path d="M256.408 283.404H250.39L247.527 260.17H256.409L256.408 283.404Z" fill="#FFB6B6"/>
<path d="M259.1 294.842H254.83L254.068 290.806L252.115 294.842H240.789C240.246 294.842 239.718 294.668 239.28 294.346C238.843 294.024 238.52 293.571 238.359 293.052C238.197 292.533 238.205 291.976 238.382 291.462C238.559 290.949 238.896 290.505 239.343 290.196L248.387 283.944V279.865L257.901 280.433L259.1 294.842Z" fill="#2F2E41"/>
<path d="M326.914 276.847L321.679 279.82L307.734 261.026L315.459 256.639L326.914 276.847Z" fill="#FFB6B6"/>
<path d="M334.894 285.466L331.18 287.575L328.528 284.442L328.819 288.916L318.968 294.51C318.496 294.778 317.951 294.888 317.412 294.824C316.873 294.76 316.368 294.525 315.972 294.154C315.575 293.783 315.308 293.294 315.209 292.76C315.109 292.226 315.183 291.674 315.42 291.184L320.204 281.279L318.192 277.731L326.747 273.526L334.894 285.466Z" fill="#2F2E41"/>
<path d="M234.163 90.7117C234.934 90.8234 235.671 91.1029 236.323 91.5306C236.975 91.9583 237.525 92.5238 237.934 93.1873C238.344 93.8508 238.603 94.5961 238.694 95.3707C238.784 96.1452 238.704 96.9303 238.459 97.6706L247.668 105.649L244.189 112.433L231.342 100.983C230.127 100.488 229.135 99.5645 228.555 98.3869C227.975 97.2092 227.847 95.8594 228.194 94.5933C228.542 93.3273 229.342 92.2328 230.442 91.5174C231.542 90.802 232.866 90.5153 234.163 90.7117Z" fill="#FFB6B6"/>
<path d="M242.124 115.542L235.964 105.734L242.813 98.7261L247.677 104.65L253.702 107.341L261.971 112.383C263.615 110.446 276.285 95.8777 281.939 100.072C282.617 100.536 283.188 101.14 283.611 101.845C284.034 102.55 284.3 103.338 284.39 104.155C284.789 108.055 281.297 112.022 281.164 112.169L273.696 122.253C273.464 122.886 270.993 129.416 267.137 131.172C266.589 131.435 265.993 131.581 265.386 131.601C264.779 131.62 264.175 131.514 263.611 131.288C253.393 127.301 246.509 122.803 243.437 118.147C242.893 117.336 242.452 116.461 242.124 115.542Z" fill="#2F2E41"/>
<path d="M264.915 136.013C264.915 136.013 247.22 164.224 250.425 167.433C253.631 170.642 258.62 171.484 258.62 171.484L269.66 157.165L264.915 136.013Z" fill="#2F2E41"/>
<path d="M280.56 97.4827L272.22 103.129C268.344 105.754 265.429 109.572 263.916 114.005C262.404 118.438 262.377 123.244 263.839 127.693L266.187 134.836L280.56 97.4827Z" fill="#2F2E41"/>
<path d="M295.307 174.493L296.422 178.379L300.227 225.253L319.235 260.71L310.163 267.196L284.242 233.469L273.991 199.98L257.89 274.114L245.794 273.25L254.195 170.464L270.137 141.532L295.307 174.493Z" fill="#2F2E41"/>
<path d="M281.979 98.9026L270.371 108.397C267.824 110.481 265.989 113.309 265.124 116.486C264.731 117.928 264.544 119.419 264.569 120.914L264.915 141.532L254.272 170C254.272 170 283.125 180.91 286.972 171.284C290.819 161.658 281.979 98.9026 281.979 98.9026Z" fill="#BE53F7"/>
<path d="M265.813 161.658L263.89 153.957L264.36 134.795C264.397 133.682 270.326 116.353 277.799 97.9471L284.228 91.5129L287.693 89.2556L295.322 96.3037C295.322 96.3037 294.352 115.596 294.666 135.346C294.753 140.81 293.793 147.192 293.384 152.031L296.889 167.62V176.297L296.661 176.343C296.433 176.389 292.92 176.281 278.507 176.281C266.564 176.281 274.515 167.806 265.813 161.658Z" fill="#2F2E41"/>
<path opacity="0.2" d="M292.088 113.509L293.841 124.456L281.978 129.353L292.088 113.509Z" fill="black"/>
<path d="M280.139 87.202C286.553 87.202 291.753 81.9975 291.753 75.5775C291.753 69.1576 286.553 63.9531 280.139 63.9531C273.725 63.9531 268.525 69.1576 268.525 75.5775C268.525 81.9975 273.725 87.202 280.139 87.202Z" fill="#FFB6B6"/>
<path opacity="0.2" d="M299.599 134.559C296.508 138.141 292.315 140.594 287.68 141.531C283.045 142.469 278.229 141.839 273.991 139.739L271.463 138.487L299.599 134.559Z" fill="black"/>
<path d="M259.185 131.883C259.703 131.3 260.343 130.838 261.058 130.53C261.774 130.221 262.549 130.074 263.327 130.097C264.106 130.121 264.87 130.315 265.566 130.666C266.262 131.017 266.872 131.517 267.354 132.129L279.081 128.834L282.819 135.479L266.194 139.899C265.112 140.641 263.795 140.96 262.494 140.796C261.192 140.631 259.996 139.995 259.132 139.007C258.268 138.018 257.797 136.747 257.806 135.434C257.816 134.121 258.307 132.858 259.185 131.883Z" fill="#FFB6B6"/>
<path d="M284.273 138.918L272.702 138.657L270.634 129.075L278.253 128.277L283.816 124.728L292.577 120.6C291.868 118.16 286.705 99.5487 293.318 97.1386C294.078 96.827 294.896 96.6838 295.717 96.7188C296.538 96.7538 297.341 96.9662 298.072 97.3414C301.544 99.1571 302.927 104.26 302.976 104.452L307.267 116.246C307.667 116.789 311.749 122.451 311.089 126.64C311.006 127.242 310.799 127.82 310.481 128.338C310.163 128.856 309.741 129.302 309.242 129.648C300.287 135.985 292.744 139.256 287.168 139.256C286.193 139.263 285.221 139.15 284.273 138.918Z" fill="#2F2E41"/>
<path d="M266.212 67.9303C267.142 69.1408 270.344 70.2114 274.149 71.0751C274.143 70.9961 274.143 70.917 274.143 70.8379C274.162 69.6268 274.313 68.4214 274.593 67.243C274.856 68.6861 275.41 70.0604 276.221 71.282C276.282 71.3732 276.343 71.4644 276.41 71.5557C279.673 72.2005 283.125 72.6993 285.83 73.0338C283.97 79.7371 276.841 85.236 277.613 89.3115L298.501 93.5816C298.372 91.888 298.508 90.1848 298.902 88.5329C299.301 90.713 300.357 92.7188 301.928 94.2811L303.703 94.6461L304.232 92.0366C308.814 81.0206 302.427 69.743 291.962 63.9096C290.096 61.11 287.198 59.1636 283.903 58.4959L281.296 57.9606C279.651 57.6238 277.957 57.6146 276.309 57.9333C274.661 58.2521 273.092 58.8927 271.691 59.8185C270.29 60.7443 269.085 61.9371 268.145 63.329C267.205 64.7208 266.548 66.2843 266.212 67.9303Z" fill="#2F2E41"/>
<path d="M9.98317 280.694L9.70177 274.361C6.76826 272.792 3.49631 271.963 0.170044 271.946C4.74798 275.692 4.17586 282.914 7.27958 287.952C8.25963 289.515 9.5787 290.838 11.139 291.822C12.6994 292.807 14.461 293.427 16.2934 293.637L20.1243 295.985C20.65 293.051 20.5341 290.039 19.7846 287.155C19.0351 284.271 17.6699 281.584 15.7829 279.279C14.7116 277.996 13.4831 276.854 12.1264 275.878C11.2089 278.3 9.98317 280.694 9.98317 280.694Z" fill="#F2F2F2"/>
<path d="M0.695494 296.133H399.304C399.489 296.132 399.665 296.058 399.795 295.928C399.925 295.797 399.998 295.621 399.998 295.436C399.998 295.252 399.925 295.075 399.795 294.945C399.665 294.814 399.489 294.741 399.304 294.74H0.695494C0.511377 294.741 0.334996 294.814 0.204993 294.945C0.0749913 295.075 0.00198364 295.252 0.00198364 295.436C0.00198364 295.621 0.0749913 295.797 0.204993 295.928C0.334996 296.058 0.511377 296.132 0.695494 296.133Z" fill="#CACACA"/>
<path d="M216.94 39.7893C218.385 46.1445 219.072 53.3495 215.217 59.0367C213.578 61.4765 211.174 63.2997 208.384 64.2179C205.559 65.0561 202.582 65.2392 199.676 64.7533C193.101 63.8415 187.258 60.4137 180.792 59.0829C177.938 58.4956 174.91 58.3015 172.163 59.4318C170.105 60.2787 167.937 61.9813 167.927 64.4101C167.917 66.9042 170.081 68.5596 172.234 69.3264C175.106 70.3496 178.09 69.9536 181.069 69.8246C184.278 69.6857 187.549 69.9761 190.215 71.9428C192.507 73.7336 194.265 76.1193 195.298 78.8403C196.637 82.0946 197.181 85.5934 198.038 88.9889C198.803 92.0416 199.886 95.0056 201.269 97.8324C203.983 103.373 207.786 108.308 212.452 112.341C214.753 114.323 217.549 116.342 220.692 116.524C223.116 116.664 226.062 115.645 226.996 113.187C227.344 112.126 227.31 110.977 226.9 109.939C226.491 108.9 225.732 108.037 224.755 107.499C222.678 106.45 220.416 107.946 219.745 110.001C219.569 110.474 219.507 110.983 219.565 111.485C219.623 111.986 219.799 112.468 220.078 112.888C220.708 113.829 219.191 114.707 218.565 113.774C217.112 111.606 217.872 108.69 219.651 106.953C220.519 106.067 221.679 105.528 222.915 105.436C224.151 105.344 225.378 105.705 226.368 106.452C227.396 107.235 228.173 108.302 228.604 109.522C229.035 110.741 229.101 112.059 228.794 113.316C228.046 116.015 225.397 117.732 222.75 118.157C219.483 118.682 216.338 117.397 213.7 115.54C211.053 113.628 208.647 111.403 206.533 108.914C202.235 103.967 199.004 98.1846 197.043 91.9296C195.114 85.7431 194.974 77.5705 189.242 73.3924C186.293 71.2425 182.679 71.481 179.221 71.6783C176.169 71.8525 173.191 71.8208 170.391 70.4377C168.079 69.2956 166.213 67.1876 166.174 64.5019C166.135 61.7906 168.059 59.6105 170.325 58.3753C176.311 55.1122 183.5 57.7439 189.381 59.924C195.295 62.1163 202.047 64.6895 208.332 62.3824C211.233 61.2541 213.568 59.0206 214.826 56.1715C216.348 52.941 216.565 49.2755 216.213 45.7696C216.006 43.9135 215.684 42.072 215.25 40.2556C215 39.1566 216.689 38.6874 216.94 39.7893Z" fill="#3F3D56"/>
<path d="M206.198 21.9613C207.931 27.7525 210.544 33.2424 213.944 38.2386C214.785 39.4664 215.669 40.6631 216.596 41.8285C217.316 40.5181 218.189 39.2974 219.195 38.1918C222.729 34.3038 227.467 31.7604 232.064 29.2113C236.661 26.6621 241.329 23.9258 244.576 19.7922C246.034 17.9315 247.077 15.7806 247.637 13.4836C248.373 10.3673 248.093 7.11653 246.276 4.51474C243.636 0.73191 238.373 -0.601145 233.898 0.492191C229.418 1.58553 225.668 4.70182 222.759 8.28002C223.711 3.88328 219.079 -0.361432 214.598 0.0244519C210.118 0.416182 206.525 4.33348 205.334 8.67175C204.136 13.0042 204.913 17.6465 206.198 21.9613Z" fill="#BE53F7"/>
<g opacity="0.2">
<path d="M213.944 38.2387C214.785 39.4665 215.669 40.6631 216.596 41.8285C217.316 40.5181 218.189 39.2975 219.195 38.1919C222.729 34.3038 227.467 31.7605 232.064 29.2113C236.661 26.6621 241.328 23.9259 244.576 19.7922C246.034 17.9315 247.077 15.7807 247.637 13.4836C237.303 14.9177 227.807 19.9599 220.825 27.7204C218.03 30.8709 215.712 34.4147 213.944 38.2387Z" fill="black"/>
</g>
</g>
<defs>
<clipPath id="clip0_26_169">
<rect width="400" height="296.133" fill="white"/>
</clipPath>
</defs>
</svg>
