<svg width="512" height="428" viewBox="0 0 512 428" fill="none" xmlns="http://www.w3.org/2000/svg">
<g clip-path="url(#clip0_27_205)">
<path d="M349.78 -9.72913e-05L0 207.076L10.5194 224.813L360.299 17.7361L349.78 -9.72913e-05Z" fill="#F2F2F2"/>
<path d="M425.804 17.361L76.0238 224.438L86.5432 242.174L436.323 35.0971L425.804 17.361Z" fill="#F2F2F2"/>
<path d="M493.139 36.3495L143.359 243.426L153.879 261.162L503.659 54.0857L493.139 36.3495Z" fill="#F2F2F2"/>
<path d="M227.83 242.744C288.312 242.744 337.342 193.758 337.342 133.332C337.342 72.9052 288.312 23.9198 227.83 23.9198C167.348 23.9198 118.318 72.9052 118.318 133.332C118.318 193.758 167.348 242.744 227.83 242.744Z" fill="white"/>
<path d="M117.504 133.332C117.504 72.5532 166.996 23.1061 227.83 23.1061C288.665 23.1061 338.157 72.5532 338.157 133.332C338.157 194.11 288.665 243.557 227.83 243.557C166.996 243.557 117.504 194.11 117.504 133.332ZM119.133 133.332C119.133 193.213 167.894 241.93 227.83 241.93C287.766 241.93 336.528 193.213 336.528 133.332C336.528 73.4507 287.766 24.7337 227.83 24.7337C167.894 24.7337 119.133 73.4507 119.133 133.332Z" fill="#3F3D56"/>
<path d="M208.309 133.808C208.309 129.95 209.454 126.179 211.599 122.972C213.744 119.764 216.793 117.264 220.36 115.788C223.927 114.312 227.852 113.926 231.639 114.678C235.426 115.431 238.904 117.288 241.634 120.016C244.364 122.744 246.224 126.219 246.977 130.002C247.73 133.786 247.344 137.707 245.866 141.271C244.388 144.835 241.886 147.881 238.676 150.024C235.466 152.167 231.691 153.311 227.83 153.311C222.653 153.311 217.687 151.256 214.026 147.599C210.365 143.941 208.309 138.98 208.309 133.808ZM227.83 115.255C222.907 115.261 218.187 117.217 214.706 120.695C211.225 124.173 209.266 128.889 209.261 133.808C209.261 137.477 210.35 141.064 212.39 144.115C214.431 147.166 217.331 149.544 220.724 150.948C224.117 152.352 227.851 152.719 231.453 152.004C235.055 151.288 238.364 149.521 240.961 146.926C243.558 144.331 245.326 141.026 246.043 137.427C246.759 133.828 246.392 130.098 244.986 126.708C243.581 123.318 241.201 120.42 238.147 118.382C235.093 116.343 231.503 115.255 227.83 115.255Z" fill="#3F3D56"/>
<path d="M190.691 133.807C190.691 126.469 192.87 119.295 196.95 113.193C201.031 107.091 206.832 102.335 213.618 99.527C220.404 96.7186 227.871 95.9838 235.076 97.4155C242.28 98.8472 248.897 102.381 254.091 107.57C259.285 112.76 262.823 119.371 264.256 126.569C265.689 133.766 264.953 141.227 262.142 148.007C259.331 154.787 254.571 160.582 248.464 164.659C242.356 168.736 235.176 170.912 227.83 170.912C222.953 170.912 218.124 169.953 213.618 168.088C209.112 166.223 205.018 163.49 201.569 160.045C198.12 156.599 195.385 152.509 193.518 148.007C191.652 143.505 190.691 138.68 190.691 133.807ZM227.83 97.6539C220.673 97.6539 213.677 99.7743 207.726 103.747C201.775 107.719 197.137 113.366 194.398 119.972C191.659 126.578 190.943 133.848 192.339 140.861C193.735 147.874 197.182 154.316 202.242 159.372C207.303 164.428 213.751 167.871 220.771 169.266C227.79 170.661 235.066 169.945 241.678 167.209C248.291 164.473 253.942 159.839 257.918 153.893C261.895 147.948 264.017 140.958 264.017 133.807C264.006 124.222 260.19 115.033 253.406 108.255C246.622 101.477 237.424 97.6647 227.83 97.6539Z" fill="#CCCCCC"/>
<path d="M155.457 133.807C155.457 119.506 159.702 105.527 167.654 93.6358C175.607 81.745 186.91 72.4772 200.134 67.0044C213.359 61.5317 227.911 60.0998 241.95 62.8898C255.989 65.6797 268.884 72.5663 279.006 82.6786C289.127 92.791 296.02 105.675 298.813 119.701C301.605 133.727 300.172 148.266 294.694 161.478C289.217 174.691 279.94 185.983 268.039 193.929C256.137 201.874 242.144 206.114 227.83 206.114C208.642 206.093 190.247 198.468 176.679 184.912C163.111 171.357 155.479 152.978 155.457 133.807ZM227.83 62.4518C213.705 62.4518 199.896 66.6368 188.151 74.4774C176.406 82.3181 167.252 93.4623 161.846 106.501C156.44 119.539 155.026 133.887 157.782 147.728C160.537 161.57 167.34 174.284 177.328 184.263C187.316 194.243 200.042 201.039 213.897 203.792C227.751 206.545 242.111 205.132 255.162 199.731C268.212 194.331 279.367 185.185 287.215 173.451C295.062 161.716 299.251 147.92 299.251 133.807C299.23 114.889 291.698 96.7522 278.309 83.3751C264.919 69.9979 246.766 62.4732 227.83 62.4518Z" fill="#CCCCCC"/>
<path d="M227.83 142.37C232.827 142.37 236.877 138.324 236.877 133.332C236.877 128.34 232.827 124.293 227.83 124.293C222.834 124.293 218.784 128.34 218.784 133.332C218.784 138.324 222.834 142.37 227.83 142.37Z" fill="#BE53F7"/>
<path d="M204.499 168.534C209.496 168.534 213.546 164.487 213.546 159.496C213.546 154.504 209.496 150.457 204.499 150.457C199.503 150.457 195.453 154.504 195.453 159.496C195.453 164.487 199.503 168.534 204.499 168.534Z" fill="#BE53F7"/>
<path d="M295.521 164.728C300.517 164.728 304.567 160.682 304.567 155.69C304.567 150.698 300.517 146.651 295.521 146.651C290.524 146.651 286.474 150.698 286.474 155.69C286.474 160.682 290.524 164.728 295.521 164.728Z" fill="#BE53F7"/>
<path d="M227.83 137.613C230.197 137.613 232.115 135.696 232.115 133.332C232.115 130.967 230.197 129.05 227.83 129.05C225.464 129.05 223.545 130.967 223.545 133.332C223.545 135.696 225.464 137.613 227.83 137.613Z" fill="#2F2E41"/>
<path d="M295.521 159.971C297.887 159.971 299.806 158.054 299.806 155.69C299.806 153.325 297.887 151.408 295.521 151.408C293.154 151.408 291.235 153.325 291.235 155.69C291.235 158.054 293.154 159.971 295.521 159.971Z" fill="#2F2E41"/>
<path d="M204.499 164.252C206.866 164.252 208.785 162.336 208.785 159.971C208.785 157.607 206.866 155.69 204.499 155.69C202.133 155.69 200.214 157.607 200.214 159.971C200.214 162.336 202.133 164.252 204.499 164.252Z" fill="#2F2E41"/>
<path d="M27.8517 89.5669C30.2183 89.5669 32.1369 87.6501 32.1369 85.2856C32.1369 82.9211 30.2183 81.0043 27.8517 81.0043C25.485 81.0043 23.5664 82.9211 23.5664 85.2856C23.5664 87.6501 25.485 89.5669 27.8517 89.5669Z" fill="#BE53F7"/>
<path d="M227.592 85.5238H39.5167V84.5724H228.545V133.569H227.592V85.5238Z" fill="#2F2E41"/>
<path d="M15.4719 85.2856C15.4719 82.8393 16.198 80.4481 17.5583 78.4141C18.9186 76.3801 20.852 74.7949 23.1141 73.8587C25.3761 72.9226 27.8653 72.6777 30.2667 73.1549C32.6681 73.6321 34.8739 74.8101 36.6053 76.5398C38.3366 78.2696 39.5156 80.4734 39.9933 82.8726C40.471 85.2718 40.2258 87.7587 39.2889 90.0187C38.3519 92.2787 36.7651 94.2104 34.7293 95.5694C32.6935 96.9285 30.3 97.6539 27.8516 97.6539C26.2259 97.6539 24.616 97.334 23.1141 96.7124C21.6121 96.0909 20.2474 95.1798 19.0978 94.0313C17.9483 92.8828 17.0364 91.5193 16.4143 90.0187C15.7921 88.5181 15.4719 86.9098 15.4719 85.2856ZM27.8516 73.8687C25.5915 73.8687 23.3821 74.5383 21.5029 75.7928C19.6237 77.0473 18.159 78.8303 17.2941 80.9165C16.4292 83.0027 16.2028 85.2982 16.6438 87.5129C17.0847 89.7276 18.1731 91.7619 19.7712 93.3586C21.3693 94.9552 23.4055 96.0426 25.6222 96.4831C27.8389 96.9236 30.1365 96.6975 32.2246 95.8334C34.3127 94.9693 36.0974 93.506 37.353 91.6285C38.6087 89.751 39.2789 87.5436 39.2789 85.2856C39.2754 82.2587 38.0704 79.3568 35.9281 77.2164C33.7858 75.0761 30.8812 73.8721 27.8516 73.8687Z" fill="#2F2E41"/>
<path d="M56.42 212.774C58.7867 212.774 60.7053 210.858 60.7053 208.493C60.7053 206.128 58.7867 204.212 56.42 204.212C54.0533 204.212 52.1348 206.128 52.1348 208.493C52.1348 210.858 54.0533 212.774 56.42 212.774Z" fill="#BE53F7"/>
<path d="M44.0404 208.493C44.0404 206.047 44.7665 203.656 46.1267 201.622C47.487 199.588 49.4205 198.002 51.6825 197.066C53.9446 196.13 56.4338 195.885 58.8352 196.362C61.2366 196.84 63.4424 198.018 65.1737 199.747C66.9051 201.477 68.0841 203.681 68.5618 206.08C69.0394 208.479 68.7943 210.966 67.8573 213.226C66.9203 215.486 65.3336 217.418 63.2978 218.777C61.262 220.136 58.8685 220.861 56.42 220.861C53.1367 220.861 49.9879 219.558 47.6663 217.239C45.3447 214.919 44.0404 211.773 44.0404 208.493ZM56.42 197.076C54.1599 197.076 51.9506 197.746 50.0713 199C48.1921 200.255 46.7274 202.038 45.8625 204.124C44.9976 206.21 44.7713 208.506 45.2122 210.72C45.6532 212.935 46.7415 214.969 48.3396 216.566C49.9378 218.163 51.9739 219.25 54.1906 219.691C56.4073 220.131 58.705 219.905 60.7931 219.041C62.8811 218.177 64.6658 216.713 65.9215 214.836C67.1771 212.958 67.8474 210.751 67.8474 208.493C67.8439 205.466 66.6388 202.564 64.4965 200.424C62.3542 198.284 59.4497 197.08 56.42 197.076Z" fill="#2F2E41"/>
<path d="M428.363 109.547C430.73 109.547 432.649 107.63 432.649 105.265C432.649 102.901 430.73 100.984 428.363 100.984C425.997 100.984 424.078 102.901 424.078 105.265C424.078 107.63 425.997 109.547 428.363 109.547Z" fill="#BE53F7"/>
<path d="M415.984 105.265C415.984 102.819 416.71 100.428 418.07 98.3937C419.43 96.3597 421.364 94.7745 423.626 93.8383C425.888 92.9022 428.377 92.6573 430.778 93.1345C433.18 93.6117 435.386 94.7897 437.117 96.5195C438.848 98.2492 440.027 100.453 440.505 102.852C440.983 105.251 440.738 107.738 439.801 109.998C438.864 112.258 437.277 114.19 435.241 115.549C433.205 116.908 430.812 117.633 428.363 117.633C426.738 117.633 425.128 117.314 423.626 116.692C422.124 116.07 420.759 115.159 419.61 114.011C418.46 112.862 417.548 111.499 416.926 109.998C416.304 108.498 415.984 106.889 415.984 105.265ZM428.363 93.8483C425.334 93.8518 422.429 95.0557 420.287 97.196C418.144 99.3364 416.939 102.238 416.936 105.265C416.936 107.523 417.606 109.731 418.862 111.608C420.117 113.486 421.902 114.949 423.99 115.813C426.078 116.677 428.376 116.903 430.593 116.463C432.809 116.022 434.846 114.935 436.444 113.338C438.042 111.741 439.13 109.707 439.571 107.492C440.012 105.278 439.786 102.982 438.921 100.896C438.056 98.8099 436.591 97.0268 434.712 95.7723C432.833 94.5178 430.623 93.8483 428.363 93.8483Z" fill="#2F2E41"/>
<path d="M295.044 106.7L416.452 104.79L416.467 105.74L295.997 107.636V155.69H295.044V106.7Z" fill="#2F2E41"/>
<path d="M68.3239 208.017H204.023V159.971H204.975V208.968H68.3239V208.017Z" fill="#2F2E41"/>
<path d="M54.0393 107.644H1.66394V110.974H54.0393V107.644Z" fill="#CCCCCC"/>
<path d="M54.0393 117.158H1.66394V120.488H54.0393V117.158Z" fill="#CCCCCC"/>
<path d="M54.0393 126.672H1.66394V130.002H54.0393V126.672Z" fill="#CCCCCC"/>
<path d="M82.6077 230.851H30.2323V234.181H82.6077V230.851Z" fill="#CCCCCC"/>
<path d="M82.6077 240.365H30.2323V243.695H82.6077V240.365Z" fill="#CCCCCC"/>
<path d="M82.6077 249.879H30.2323V253.209H82.6077V249.879Z" fill="#CCCCCC"/>
<path d="M454.551 128.099H402.176V131.429H454.551V128.099Z" fill="#CCCCCC"/>
<path d="M454.551 137.613H402.176V140.943H454.551V137.613Z" fill="#CCCCCC"/>
<path d="M454.551 147.127H402.176V150.457H454.551V147.127Z" fill="#CCCCCC"/>
<path d="M479.484 411.811L472.036 414.471L458.224 387.032L469.218 383.107L479.484 411.811Z" fill="#FFB8B8"/>
<path d="M459.948 426.922L459.839 426.618C458.956 424.141 459.093 421.415 460.219 419.038C461.345 416.662 463.369 414.828 465.847 413.941L480.515 408.703L483.965 418.346L459.948 426.922Z" fill="#2F2E41"/>
<path d="M431.049 419.172L423.139 419.171L419.376 388.689L431.051 388.69L431.049 419.172Z" fill="#FFB8B8"/>
<path d="M433.066 426.832L407.561 426.831V426.509C407.561 425.206 407.818 423.917 408.317 422.713C408.816 421.51 409.547 420.417 410.469 419.496C411.391 418.575 412.485 417.844 413.69 417.346C414.894 416.847 416.185 416.591 417.489 416.591L433.067 416.591L433.066 426.832Z" fill="#2F2E41"/>
<path d="M449.076 224.431L445.636 217.64C445.636 217.64 432.821 220.848 431.656 228.268L449.076 224.431Z" fill="#BE53F7"/>
<path d="M463.27 302.083L453.915 354.24L478.755 398.129L463.915 403.93L438.753 361.386L435.527 349.783L433.591 410.376L420.208 409.97L414.072 353.391L423.913 300.794L463.27 302.083Z" fill="#2F2E41"/>
<path d="M418.588 311.492C418.298 310.2 417.465 270.77 417.465 270.77C417.465 270.77 431.224 225.643 431.35 225.272L431.399 225.127L441.845 221.214C441.992 221.147 445.472 219.598 448.32 220.889C449.051 221.244 449.695 221.755 450.207 222.384C450.72 223.014 451.089 223.747 451.288 224.534C452.473 225.416 461.012 234.972 461.012 247.933L461.334 278.519L468.492 311.677L468.176 311.745C467.98 311.786 459.255 314.413 445.511 314.413C437.875 314.413 418.588 311.492 418.588 311.492Z" fill="#3F3D56"/>
<path d="M434.951 215.502C442.749 215.502 449.07 209.186 449.07 201.396C449.07 193.606 442.749 187.29 434.951 187.29C427.154 187.29 420.833 193.606 420.833 201.396C420.833 209.186 427.154 215.502 434.951 215.502Z" fill="#FFB8B8"/>
<path opacity="0.2" d="M455.065 263.54L430.365 297.972L426.717 281.892L455.065 263.54Z" fill="black"/>
<path d="M411.226 298.714C412.111 298.679 412.978 298.45 413.765 298.044C414.552 297.638 415.241 297.065 415.782 296.365C416.323 295.664 416.704 294.854 416.898 293.99C417.092 293.127 417.094 292.231 416.904 291.367L435.257 280.119L425.122 275.382L409.248 286.789C407.815 287.205 406.585 288.13 405.791 289.391C404.996 290.652 404.692 292.16 404.936 293.63C405.179 295.1 405.955 296.429 407.114 297.366C408.273 298.303 409.737 298.783 411.226 298.714Z" fill="#FFB8B8"/>
<path d="M423.913 275.654L417.627 280.055L422.958 289.513L430.365 283.39L423.913 275.654Z" fill="#BE53F7"/>
<path d="M420.623 275.932L435.408 258.809L429.743 235.192C429.158 232.751 429.481 230.181 430.654 227.961C431.826 225.741 433.767 224.023 436.114 223.128C438.461 222.233 441.054 222.223 443.408 223.098C445.763 223.973 447.718 225.674 448.909 227.884L449.037 228.124L454.257 263.195L428.028 290.056L420.623 275.932Z" fill="#3F3D56"/>
<path d="M446.977 213.643L435.259 214.063C434.544 214.089 432.606 206.387 432.352 204.789C432.151 203.749 431.579 202.817 430.741 202.168C429.903 201.519 428.857 201.197 427.799 201.262C426.922 201.344 424.71 199.707 422.427 197.768C418.094 194.087 418.319 187.174 423.079 184.064C423.21 183.979 423.337 183.901 423.463 183.831C426.466 182.152 429.979 181.588 433.42 181.545C436.539 181.506 439.747 181.898 442.496 183.373C447.423 186.018 450.045 191.797 450.275 197.381C450.505 202.964 448.714 208.423 446.681 213.629" fill="#2F2E41"/>
<path d="M511.355 427.025H368.768C368.596 427.025 368.432 426.957 368.311 426.836C368.19 426.716 368.122 426.552 368.122 426.381C368.122 426.21 368.19 426.046 368.311 425.925C368.432 425.804 368.596 425.736 368.768 425.736H511.355C511.526 425.736 511.69 425.804 511.811 425.925C511.932 426.046 512 426.21 512 426.381C512 426.552 511.932 426.716 511.811 426.836C511.69 426.957 511.526 427.025 511.355 427.025Z" fill="#3F3D56"/>
</g>
<defs>
<clipPath id="clip0_27_205">
<rect width="512" height="427.025" fill="white"/>
</clipPath>
</defs>
</svg>
